<?xml version="1.0" encoding="UTF-8" standalone="no"?>
<svg
   viewBox="0 0 680 200"
   width="680"
   height="200"
   version="1.1"
   id="svg13"
   sodipodi:docname="logo_gaitguard2.svg"
   xml:space="preserve"
   inkscape:version="1.3 (0e150ed, 2023-07-21)"
   xmlns:inkscape="http://www.inkscape.org/namespaces/inkscape"
   xmlns:sodipodi="http://sodipodi.sourceforge.net/DTD/sodipodi-0.dtd"
   xmlns:xlink="http://www.w3.org/1999/xlink"
   xmlns="http://www.w3.org/2000/svg"
   xmlns:svg="http://www.w3.org/2000/svg"><sodipodi:namedview
     id="namedview13"
     pagecolor="#ffffff"
     bordercolor="#000000"
     borderopacity="0.25"
     inkscape:showpageshadow="2"
     inkscape:pageopacity="0.0"
     inkscape:pagecheckerboard="0"
     inkscape:deskcolor="#d1d1d1"
     inkscape:zoom="1.2697517"
     inkscape:cx="218.94045"
     inkscape:cy="90.175112"
     inkscape:window-width="1512"
     inkscape:window-height="744"
     inkscape:window-x="0"
     inkscape:window-y="33"
     inkscape:window-maximized="0"
     inkscape:current-layer="svg13" /><defs
     id="defs6"><inkscape:path-effect
       effect="bspline"
       id="path-effect41"
       is_visible="true"
       lpeversion="1.3"
       weight="33.333333"
       steps="2"
       helper_size="0"
       apply_no_weight="true"
       apply_with_weight="true"
       only_selected="false"
       uniform="false" /><inkscape:path-effect
       effect="bspline"
       id="path-effect40"
       is_visible="true"
       lpeversion="1.3"
       weight="33.333333"
       steps="2"
       helper_size="0"
       apply_no_weight="true"
       apply_with_weight="true"
       only_selected="false"
       uniform="false" /><inkscape:path-effect
       effect="bspline"
       id="path-effect39"
       is_visible="true"
       lpeversion="1.3"
       weight="33.333333"
       steps="2"
       helper_size="0"
       apply_no_weight="true"
       apply_with_weight="true"
       only_selected="false"
       uniform="false" /><inkscape:path-effect
       effect="bspline"
       id="path-effect38"
       is_visible="true"
       lpeversion="1.3"
       weight="33.333333"
       steps="2"
       helper_size="0"
       apply_no_weight="true"
       apply_with_weight="true"
       only_selected="false"
       uniform="false" /><inkscape:path-effect
       effect="bspline"
       id="path-effect37"
       is_visible="true"
       lpeversion="1.3"
       weight="33.333333"
       steps="2"
       helper_size="0"
       apply_no_weight="true"
       apply_with_weight="true"
       only_selected="false"
       uniform="false" /><inkscape:path-effect
       effect="bspline"
       id="path-effect36"
       is_visible="true"
       lpeversion="1.3"
       weight="33.333333"
       steps="2"
       helper_size="0"
       apply_no_weight="true"
       apply_with_weight="true"
       only_selected="false"
       uniform="false" /><inkscape:path-effect
       effect="bspline"
       id="path-effect35"
       is_visible="true"
       lpeversion="1.3"
       weight="33.333333"
       steps="2"
       helper_size="0"
       apply_no_weight="true"
       apply_with_weight="true"
       only_selected="false"
       uniform="false" /><inkscape:path-effect
       effect="bspline"
       id="path-effect34"
       is_visible="true"
       lpeversion="1.3"
       weight="33.333333"
       steps="2"
       helper_size="0"
       apply_no_weight="true"
       apply_with_weight="true"
       only_selected="false"
       uniform="false" /><inkscape:path-effect
       effect="bspline"
       id="path-effect33"
       is_visible="true"
       lpeversion="1.3"
       weight="33.333333"
       steps="2"
       helper_size="0"
       apply_no_weight="true"
       apply_with_weight="true"
       only_selected="false"
       uniform="false" /><linearGradient
       id="linearGradient23"
       inkscape:collect="always"><stop
         style="stop-color:#1a3566;stop-opacity:1;"
         offset="0"
         id="stop23" /><stop
         style="stop-color:#1a3566;stop-opacity:0;"
         offset="1"
         id="stop24" /></linearGradient><linearGradient
       id="linearGradient21"
       inkscape:collect="always"><stop
         style="stop-color:#5ba8d4;stop-opacity:1;"
         offset="0"
         id="stop21" /><stop
         style="stop-color:#5ba8d4;stop-opacity:0;"
         offset="1"
         id="stop22" /></linearGradient><linearGradient
       id="thighGrad"
       x1="293.02468"
       y1="16.892775"
       x2="339.19826"
       y2="63.066361"
       gradientTransform="matrix(0.56309251,0,0,1.7759071,3.5511616,-64.876357)"
       gradientUnits="userSpaceOnUse"><stop
         offset="0%"
         style="stop-color:#7EC8E8"
         id="stop1" /><stop
         offset="100%"
         style="stop-color:#4A9FD4"
         id="stop2" /></linearGradient><linearGradient
       id="shinGrad"
       x1="326.08421"
       y1="60.830913"
       x2="368.03656"
       y2="102.78327"
       gradientTransform="matrix(0.52440442,0,0,1.9069252,-14.089957,-14.518346)"
       gradientUnits="userSpaceOnUse"><stop
         offset="0%"
         style="stop-color:#4A9FD4"
         id="stop3" /><stop
         offset="100%"
         style="stop-color:#2F6BA8"
         id="stop4" /></linearGradient><linearGradient
       id="footGrad"
       x1="0%"
       y1="0%"
       x2="100%"
       y2="100%"><stop
         offset="0%"
         style="stop-color:#2F6BA8"
         id="stop5" /><stop
         offset="100%"
         style="stop-color:#1A3566"
         id="stop6" /></linearGradient><linearGradient
       inkscape:collect="always"
       xlink:href="#linearGradient21"
       id="linearGradient22"
       x1="431.36572"
       y1="100.65137"
       x2="662.31885"
       y2="100.65137"
       gradientUnits="userSpaceOnUse" /><linearGradient
       inkscape:collect="always"
       xlink:href="#linearGradient23"
       id="linearGradient24"
       x1="272.24707"
       y1="100.65137"
       x2="423.2002"
       y2="100.65137"
       gradientUnits="userSpaceOnUse" /><linearGradient
       inkscape:collect="always"
       xlink:href="#shinGrad"
       id="linearGradient207"
       x1="234.42197"
       y1="84.243561"
       x2="242.06927"
       y2="84.243561"
       gradientUnits="userSpaceOnUse" /><linearGradient
       inkscape:collect="always"
       xlink:href="#shinGrad"
       id="linearGradient208"
       x1="194.25327"
       y1="154.26654"
       x2="194.25327"
       y2="154.26654"
       gradientUnits="userSpaceOnUse" /><linearGradient
       inkscape:collect="always"
       xlink:href="#shinGrad"
       id="linearGradient209"
       x1="182.72673"
       y1="150.9519"
       x2="182.72673"
       y2="150.9519"
       gradientUnits="userSpaceOnUse" /><linearGradient
       inkscape:collect="always"
       xlink:href="#shinGrad"
       id="linearGradient210"
       x1="204.72543"
       y1="140.56331"
       x2="211.19534"
       y2="140.56331"
       gradientUnits="userSpaceOnUse" /><linearGradient
       inkscape:collect="always"
       xlink:href="#shinGrad"
       id="linearGradient211"
       x1="303.29013"
       y1="-100.59526"
       x2="318.10257"
       y2="-100.59526"
       gradientUnits="userSpaceOnUse" /><linearGradient
       inkscape:collect="always"
       xlink:href="#shinGrad"
       id="linearGradient212"
       x1="307.59406"
       y1="-97.725494"
       x2="323.61594"
       y2="-97.725494"
       gradientUnits="userSpaceOnUse" /><linearGradient
       inkscape:collect="always"
       xlink:href="#shinGrad"
       id="linearGradient213"
       x1="322.53729"
       y1="-112.28298"
       x2="326.02136"
       y2="-112.28298"
       gradientUnits="userSpaceOnUse" /><linearGradient
       inkscape:collect="always"
       xlink:href="#shinGrad"
       id="linearGradient214"
       x1="313.80063"
       y1="-125.1486"
       x2="324.90741"
       y2="-125.1486"
       gradientUnits="userSpaceOnUse" /><linearGradient
       inkscape:collect="always"
       xlink:href="#shinGrad"
       id="linearGradient215"
       x1="305.53687"
       y1="-124.77473"
       x2="318.60498"
       y2="-124.77473"
       gradientUnits="userSpaceOnUse" /><linearGradient
       inkscape:collect="always"
       xlink:href="#shinGrad"
       id="linearGradient218"
       x1="297.39594"
       y1="-78.598595"
       x2="318.74594"
       y2="-78.598595"
       gradientUnits="userSpaceOnUse" /></defs><!-- ============================================================ --><!--  LEG ICON                                                     --><!-- ============================================================ --><!-- THIGH SEGMENT — capsule, rotated ~22° clockwise --><!-- Center of thigh: (~178, 73), length ~82, width 26 --><!-- KNEE JOINT CIRCLE --><!-- SHIN SEGMENT — capsule, rotated ~-15° (slight left lean from knee down) --><!-- Center of shin: (~182, 157), length ~80, width 22 --><!-- ANKLE JOINT CIRCLE --><!-- FOOT — dark navy, forward-pointing shape from ankle --><!-- ============================================================ --><!--  ECG / PULSE LINE — runs horizontally through knee area      --><!-- ============================================================ --><!-- Flat left → QRS complex → flat right, threading through the leg icon --><!-- ============================================================ --><!--  WORDMARK                                                     --><!-- ============================================================ --><!-- "Gait" — dark navy, italic --><text
     x="35.118607"
     y="123.47854"
     font-family="'Arial', 'Helvetica Neue', sans-serif"
     font-weight="800"
     font-style="italic"
     font-size="82"
     fill="#1A3566"
     letter-spacing="-2"
     id="text12"
     style="font-style:normal;font-variant:normal;font-weight:bold;font-stretch:normal;font-size:82px;font-family:'PT Sans Caption';-inkscape-font-specification:'PT Sans Caption, Bold';font-variant-ligatures:normal;font-variant-caps:normal;font-variant-numeric:normal;font-variant-east-asian:normal;letter-spacing:-2;fill:#1863a7;fill-opacity:1">Gait</text><!-- "Guard" — medium blue, italic --><text
     x="261.08221"
     y="125.92409"
     font-family="Arial, 'Helvetica Neue', sans-serif"
     font-weight="800"
     font-style="italic"
     font-size="82px"
     fill="#5ba8d4"
     letter-spacing="-2"
     id="text13"
     style="font-style:normal;font-variant:normal;font-weight:bold;font-stretch:normal;font-size:82px;font-family:'PT Sans Caption';-inkscape-font-specification:'PT Sans Caption, Bold';font-variant-ligatures:normal;font-variant-caps:normal;font-variant-numeric:normal;font-variant-east-asian:normal;letter-spacing:-2;fill:#70b0eb;fill-opacity:1">Guard</text><ellipse
     style="fill:url(#linearGradient207);fill-opacity:1;stroke-width:2.40831;fill-rule:nonzero"
     id="path34-5"
     cx="238.24562"
     cy="84.243561"
     rx="3.8236482"
     ry="3.8837798" /><path
     style="fill:url(#linearGradient208);fill-opacity:1;stroke-width:1.41509;fill-rule:nonzero"
     d="m 194.25327,152.99068 v 2.55172"
     id="path14" /><path
     style="fill:url(#linearGradient209);fill-opacity:1;stroke-width:1.41509;fill-rule:nonzero"
     d="M 182.72673,150.9519 Z"
     id="path32" /><path
     style="fill:url(#linearGradient218);fill-opacity:1;fill-rule:nonzero"
     d="m 300.14573,-85.804044 c -0.90232,0.890283 -2.70695,2.670849 -2.74904,4.18675 -0.0421,1.5159 1.67829,2.767085 3.33856,3.867915 1.66027,1.100831 3.26035,2.051253 5.08304,3.368649 1.8227,1.317396 3.8679,3.00168 5.98535,3.585171 2.11745,0.58349 4.30702,0.06617 5.51011,-0.360925 1.20309,-0.427098 1.41964,-0.763954 1.43167,-1.160978 0.012,-0.397024 -0.18046,-0.854187 -0.69178,-1.179022 -0.51132,-0.324835 -1.34143,-0.517324 -2.14149,-0.70982 -0.80006,-0.192495 -1.57002,-0.384985 -2.63477,-1.714419 -1.06474,-1.329434 -2.4242,-3.795711 -3.1641,-5.383791 -0.73989,-1.588079 -0.8602,-2.297884 -1.19105,-2.670841 -0.33086,-0.372956 -0.87224,-0.409048 -1.27528,-0.264676 -0.40303,0.144373 -0.6677,0.469199 -1.07074,0.733881 -0.40304,0.264682 -0.94442,0.469202 -1.60612,0.487247 -0.66171,0.01804 -1.4437,-0.150385 -1.99712,-0.445145 -0.55342,-0.29476 -0.87825,-0.715833 -1.04668,-1.227149 -0.16843,-0.511316 -0.18047,-1.112848 -0.30078,-1.461745 -0.12032,-0.348897 -0.3489,-0.445141 -0.46319,-0.493263 -0.11429,-0.04812 -0.11428,-0.04812 -1.01659,0.842161 z"
     id="path33"
     inkscape:path-effect="#path-effect33"
     inkscape:original-d="m 301.04804,-86.694327 c -1.80463,1.780566 -3.60926,3.561132 -5.41389,5.341698 1.72045,1.251234 3.44083,2.502418 5.16124,3.753627 1.60013,0.950456 3.20021,1.900874 4.80031,2.851312 2.04529,1.684353 4.09049,3.368639 6.13573,5.052958 2.18966,-0.517337 4.37923,-1.034653 6.56885,-1.55198 0.21656,-0.336871 0.43311,-0.673728 0.64967,-1.010592 -0.1925,-0.457181 -0.38499,-0.914344 -0.57748,-1.371517 -0.83015,-0.192497 -1.66026,-0.384987 -2.49039,-0.577481 -0.76999,-0.192497 -1.53995,-0.384987 -2.30993,-0.577481 -1.35951,-2.466374 -2.71897,-4.93265 -4.07845,-7.398974 -0.12032,-0.709835 -0.24062,-1.419641 -0.36093,-2.129461 -0.5414,-0.03609 -1.08278,-0.07219 -1.62417,-0.108278 -0.26468,0.324839 -0.52935,0.649666 -0.79403,0.974499 -0.5414,0.204529 -1.08278,0.409049 -1.62417,0.613574 -0.78202,-0.168436 -1.56401,-0.336864 -2.34601,-0.505296 -0.32484,-0.421089 -0.64967,-0.84216 -0.9745,-1.26324 -0.012,-0.601555 -0.0241,-1.203085 -0.0361,-1.804628 -0.2286,-0.09625 -0.45718,-0.192493 -0.68576,-0.28874 z"
     transform="matrix(2.0121375,0,0,2.1037576,-405.64468,321.76956)" /><ellipse
     style="fill:url(#linearGradient210);fill-opacity:1;stroke-width:2.05744;fill-rule:nonzero"
     id="path34"
     cx="207.96039"
     cy="140.56331"
     rx="3.2349617"
     ry="3.3503535" /><path
     style="fill:url(#linearGradient213);fill-opacity:1;fill-rule:nonzero"
     d="m 325.4714,-114.80927 c 0.0992,0.25967 0.29761,0.77903 0.40848,1.21377 0.11087,0.43475 0.13421,0.78486 0.14004,1.08831 0.006,0.30344 -0.006,0.5602 -0.0379,0.83447 -0.0321,0.27427 -0.0846,0.56603 -0.16047,0.78778 -0.0759,0.22175 -0.17506,0.37347 -0.30636,0.54853 -0.1313,0.17507 -0.29469,0.37347 -0.42599,0.52811 -0.1313,0.15464 -0.2305,0.26551 -0.39389,0.31803 -0.16339,0.0525 -0.39097,0.0467 -0.58938,-0.0233 -0.19841,-0.07 -0.36763,-0.20424 -0.5427,-0.32679 -0.17506,-0.12255 -0.35595,-0.23342 -0.48726,-0.33555 -0.1313,-0.10213 -0.21298,-0.19547 -0.29177,-0.30052 -0.0788,-0.10505 -0.15463,-0.22174 -0.20131,-0.34137 -0.0467,-0.11962 -0.0642,-0.24216 -0.0204,-0.37054 0.0438,-0.12839 0.1488,-0.2626 0.2305,-0.41433 0.0817,-0.15173 0.14005,-0.32094 0.18089,-0.49308 0.0408,-0.17215 0.0642,-0.34721 0.07,-0.51936 0.006,-0.17215 -0.006,-0.34137 -0.0496,-0.47851 -0.0438,-0.13715 -0.11962,-0.24216 -0.16922,-0.3618 -0.0496,-0.11963 -0.0729,-0.25384 -0.0437,-0.40556 0.0292,-0.15172 0.11087,-0.32094 0.27135,-0.45516 0.16048,-0.13422 0.39972,-0.23341 0.60688,-0.32387 0.20716,-0.0905 0.38222,-0.17214 0.56895,-0.25675 0.18673,-0.0846 0.38515,-0.17215 0.57772,-0.20133 0.19257,-0.0292 0.37931,-1e-5 0.47267,0.0146 0.0934,0.0146 0.0933,0.0146 0.19254,0.27429 z"
     id="path37"
     inkscape:path-effect="#path-effect37"
     inkscape:original-d="m 325.3722,-115.06895 c 0.19841,0.51935 0.39681,1.03871 0.59522,1.55806 0.0233,0.35014 0.0467,0.70025 0.07,1.05038 -0.0117,0.25676 -0.0233,0.51352 -0.035,0.77028 -0.0525,0.29178 -0.10504,0.58354 -0.15756,0.87531 -0.0992,0.15173 -0.1984,0.30345 -0.2976,0.45517 -0.1634,0.19841 -0.32679,0.39681 -0.49018,0.59521 -0.0992,0.11088 -0.19841,0.22175 -0.29761,0.33262 -0.22758,-0.006 -0.45516,-0.0117 -0.68274,-0.0175 -0.16924,-0.13422 -0.33846,-0.26843 -0.50769,-0.40265 -0.1809,-0.11088 -0.36179,-0.22175 -0.54269,-0.33262 -0.0817,-0.0934 -0.16339,-0.18673 -0.24509,-0.2801 -0.0759,-0.11671 -0.15172,-0.23342 -0.22758,-0.35013 -0.0175,-0.12254 -0.035,-0.24508 -0.0525,-0.36763 0.10504,-0.13422 0.21007,-0.26843 0.31511,-0.40264 0.0584,-0.16924 0.11671,-0.33846 0.17506,-0.50769 0.0233,-0.17506 0.0467,-0.35012 0.07,-0.52519 -0.0117,-0.16923 -0.0233,-0.33845 -0.035,-0.50768 -0.0759,-0.10504 -0.15172,-0.21007 -0.22758,-0.31511 -0.0234,-0.13422 -0.0467,-0.26843 -0.07,-0.40265 0.0817,-0.16923 0.16339,-0.33845 0.24509,-0.50768 0.23926,-0.0992 0.4785,-0.19841 0.71776,-0.29761 0.17506,-0.0817 0.35012,-0.16339 0.52519,-0.24509 0.1984,-0.0875 0.39681,-0.17506 0.59521,-0.26259 0.18674,0.0292 0.37347,0.0584 0.5602,0.0875 z"
     transform="matrix(2.0121375,0,0,2.1037576,-405.64468,321.76956)" /><path
     style="fill:url(#linearGradient214);fill-opacity:1;fill-rule:nonzero"
     d="m 322.31831,-115.61521 c -0.32819,-0.0323 -0.62157,-0.26106 -0.93982,-0.41769 -0.31824,-0.15664 -0.66135,-0.24117 -0.85031,-0.33814 -0.18896,-0.097 -0.22376,-0.20636 -1.37245,-3.19494 -1.14869,-2.98859 -3.41118,-8.85613 -4.51509,-11.86952 -1.10392,-3.01339 -1.04922,-3.17251 -0.24614,-3.22721 0.80309,-0.0547 2.35451,-0.005 3.22719,0.0622 0.87269,0.0671 1.06663,0.15167 1.32273,0.37047 0.25609,0.2188 0.57432,0.57184 0.97462,1.1984 0.4003,0.62655 0.88263,1.52657 1.47438,2.93135 0.59174,1.40478 1.29286,3.31421 1.71056,4.57725 0.4177,1.26305 0.55196,1.87964 0.70363,2.49873 0.15166,0.6191 0.32072,1.24066 0.49477,2.02634 0.17404,0.78568 0.35305,1.73542 0.46245,2.46391 0.10939,0.72849 0.14918,1.23568 0.14172,1.53404 -0.007,0.29835 -0.0622,0.38786 -0.32571,0.53456 -0.26356,0.14669 -0.73594,0.35056 -1.15364,0.53455 -0.4177,0.18398 -0.7807,0.34808 -1.10889,0.31575 z"
     id="path38"
     inkscape:path-effect="#path-effect38"
     inkscape:original-d="m 322.2835,-115.41879 c -0.29338,-0.22874 -0.58676,-0.45748 -0.88014,-0.68621 -0.34312,-0.0845 -0.68622,-0.16907 -1.02933,-0.25361 -0.0348,-0.1094 -0.0696,-0.21879 -0.10442,-0.32819 -2.26258,-5.86777 -4.52506,-11.73531 -6.78759,-17.60297 0.0547,-0.15912 0.1094,-0.31824 0.1641,-0.47736 1.55147,0.0497 3.10289,0.0995 4.65434,0.14917 0.19393,0.0845 0.38786,0.16907 0.58179,0.2536 0.31826,0.35307 0.63649,0.70611 0.95474,1.05917 0.48235,0.90005 0.96468,1.80007 1.44702,2.70011 0.70115,1.90952 1.40227,3.81895 2.10341,5.72843 0.13426,0.61661 0.26852,1.2332 0.40278,1.8498 0.16907,0.62159 0.33814,1.24315 0.5072,1.86472 0.17902,0.94979 0.35803,1.89953 0.53704,2.8493 0.0398,0.50721 0.0796,1.0144 0.11935,1.52161 -0.0547,0.0895 -0.1094,0.17901 -0.1641,0.26852 -0.47241,0.20388 -0.94479,0.40775 -1.41719,0.61163 -0.363,0.1641 -0.726,0.32819 -1.089,0.49228 z"
     transform="matrix(2.0121375,0,0,2.1037576,-405.64468,321.76956)" /><path
     style="fill:url(#linearGradient215);fill-opacity:1;fill-rule:nonzero"
     d="m 307.80337,-134.85207 c 0.70466,0.0119 2.11397,0.0359 2.9082,0.21501 0.79423,0.17916 0.97338,0.51356 1.39738,1.47501 0.42399,0.96146 1.0928,2.54989 1.89899,4.52653 0.80618,1.97665 1.74969,4.34138 2.57975,6.43148 0.83007,2.0901 1.54665,3.90545 1.84523,4.87286 0.29858,0.9674 0.17915,1.08683 -0.13332,1.37525 -0.31248,0.28842 -0.81797,0.74581 -1.13103,0.98821 -0.31305,0.2424 -0.43364,0.2698 -0.70499,0.27528 -0.27134,0.005 -0.69342,-0.0109 -0.97847,-0.12331 -0.28504,-0.11237 -0.43304,-0.32067 -1.39235,-1.41154 -0.95931,-1.09087 -2.72984,-3.06422 -3.95774,-4.67035 -1.22789,-1.60614 -1.91308,-2.84496 -2.53251,-4.04272 -0.61944,-1.19775 -1.17307,-2.35435 -1.51294,-3.45617 -0.33986,-1.10182 -0.46593,-2.1488 -0.52075,-2.99572 -0.0548,-0.84692 -0.0384,-1.49374 0.0438,-1.96517 0.0822,-0.47142 0.23022,-0.76742 0.48886,-0.98928 0.25864,-0.22186 0.6279,-0.36956 0.81254,-0.44342 0.18463,-0.0738 0.18466,-0.0739 0.88932,-0.0619 z"
     id="path39"
     inkscape:path-effect="#path-effect39"
     inkscape:original-d="m 307.09871,-134.86402 c 1.40932,0.0239 2.81863,0.0478 4.22794,0.0717 0.17915,0.33442 0.3583,0.66882 0.53745,1.00323 0.66884,1.5885 1.33765,3.17693 2.00648,4.76539 0.94354,2.36483 1.88704,4.72956 2.83057,7.09434 0.71661,1.81542 1.43319,3.63077 2.14979,5.44615 -0.11943,0.11944 -0.23886,0.23887 -0.3583,0.3583 -0.50551,0.45741 -1.01101,0.9148 -1.51652,1.37219 -0.1206,0.0274 -0.24119,0.0548 -0.36179,0.0822 -0.42209,-0.0165 -0.84417,-0.0329 -1.26626,-0.0493 -0.148,-0.2083 -0.296,-0.4166 -0.44401,-0.6249 -1.77061,-1.97344 -3.54114,-3.94679 -5.31171,-5.92018 -0.68522,-1.23888 -1.37041,-2.4777 -2.05562,-3.71656 -0.55366,-1.15665 -1.10729,-2.31325 -1.66094,-3.46988 -0.12608,-1.04701 -0.25215,-2.09399 -0.37823,-3.14098 0.0164,-0.64685 0.0329,-1.29367 0.0493,-1.9405 0.14801,-0.29602 0.29601,-0.59202 0.44402,-0.88803 0.36927,-0.14771 0.73853,-0.29542 1.1078,-0.44312 z"
     transform="matrix(2.0121375,0,0,2.1037576,-405.64468,321.76956)" /><path
     style="fill:url(#linearGradient211);fill-opacity:1;fill-rule:nonzero"
     d="m 307.71735,-101.41806 c -0.32863,1.21338 -0.86453,3.296346 -1.68357,5.450112 -0.81904,2.153766 -1.92117,4.378242 -2.40652,5.536008 -0.48535,1.157765 -0.35391,1.248763 -0.17695,1.344824 0.17695,0.09606 0.3994,0.197175 0.57635,0.17695 0.17695,-0.02022 0.3084,-0.161783 0.6977,-0.252787 0.38929,-0.091 1.03642,-0.131449 1.54705,-0.409519 0.51063,-0.278071 0.88475,-0.793748 1.8403,-2.386331 0.95555,-1.592584 2.49246,-4.261958 4.28726,-7.416772 1.79481,-3.154815 3.8474,-6.794875 4.84843,-8.675615 1.00104,-1.88074 0.95049,-2.00206 0.70781,-2.3863 -0.24268,-0.38425 -0.67747,-1.03137 -0.99093,-1.39033 -0.31346,-0.35895 -0.50557,-0.42973 -0.79375,-0.44995 -0.28818,-0.0202 -0.67241,0.0101 -1.15271,0.24773 -0.4803,0.23762 -1.05664,0.68252 -1.87062,1.41056 -0.81399,0.72803 -1.86556,1.73916 -2.59359,2.68965 -0.72803,0.95048 -1.13248,1.84027 -1.45605,2.59864 -0.32357,0.75837 -0.56624,1.38527 -0.74825,1.87062 -0.18201,0.48535 -0.30334,0.82914 -0.63196,2.04251 z"
     id="path35"
     inkscape:path-effect="#path-effect35"
     inkscape:original-d="m 307.92463,-102.28764 c -0.53591,2.08296 -1.07182,4.165924 -1.60772,6.248887 -1.10218,2.224568 -2.2043,4.449047 -3.30645,6.673571 0.13145,0.09101 0.26289,0.182007 0.39434,0.27301 0.22246,0.101116 0.44491,0.202229 0.66736,0.303344 0.13145,-0.141564 0.2629,-0.283121 0.39435,-0.424682 0.64714,-0.04045 1.29427,-0.08089 1.9414,-0.121338 0.37413,-0.515695 0.74825,-1.03137 1.12237,-1.547055 1.53698,-2.669481 3.07389,-5.338856 4.61083,-8.008285 2.05267,-3.640202 4.10526,-7.280262 6.15789,-10.920392 -0.0506,-0.12134 -0.10111,-0.24267 -0.15167,-0.36401 -0.4348,-0.64715 -0.86959,-1.29427 -1.30438,-1.9414 -0.19212,-0.0708 -0.38424,-0.14156 -0.57636,-0.21234 -0.38424,0.0303 -0.76847,0.0607 -1.1527,0.091 -0.57637,0.44491 -1.15271,0.88981 -1.72906,1.33471 -1.05162,1.01117 -2.10319,2.0223 -3.15478,3.03345 -0.40447,0.88982 -0.80892,1.77961 -1.21338,2.66942 -0.24268,0.62693 -0.48535,1.25383 -0.72803,1.88074 -0.12134,0.34379 -0.24267,0.68758 -0.36401,1.03137 z"
     transform="matrix(2.0121375,0,0,2.1037576,-405.64468,321.76956)" /><path
     style="fill:url(#linearGradient212);fill-opacity:1;fill-rule:nonzero"
     d="m 322.05184,-109.35023 c 0.32095,0.23926 0.96285,0.71777 1.28671,1.07957 0.32386,0.3618 0.3297,0.60688 0.19256,1.00078 -0.13713,0.39389 -0.41723,0.93658 -0.99787,1.94612 -0.58063,1.00955 -1.46176,2.48588 -2.15618,3.5421 -0.69442,1.05623 -1.2021,1.69227 -2.05117,2.783517 -0.84907,1.091243 -2.03947,2.6376 -3.11028,4.078964 -1.07081,1.441364 -2.02197,2.777654 -2.78059,3.938916 -0.75861,1.161263 -1.32463,2.14743 -1.72144,2.932303 -0.39682,0.784874 -0.62439,1.368404 -0.79654,1.712697 -0.17215,0.344294 -0.28885,0.449326 -0.59521,0.484338 -0.30637,0.03501 -0.80237,10e-7 -1.07372,-0.134218 -0.27135,-0.134219 -0.31804,-0.367635 -0.34721,-0.618559 -0.0292,-0.250924 -0.0408,-0.519346 -0.10795,-0.764438 -0.0671,-0.245092 -0.18965,-0.466833 -0.1984,-0.6915 -0.009,-0.224666 0.0963,-0.452242 0.71777,-1.531817 0.62148,-1.079575 1.75937,-3.011066 3.07236,-5.240228 1.31299,-2.229162 2.80099,-4.755852 4.22194,-7.227185 1.42094,-2.47133 2.77473,-4.88715 3.4925,-6.10967 0.71776,-1.22252 0.79946,-1.25169 1.11457,-1.29837 0.31511,-0.0467 0.86363,-0.11086 1.1554,-0.13421 0.29176,-0.0234 0.32677,-0.006 0.34428,0.003 0.0175,0.009 0.0175,0.009 0.33847,0.24799 z"
     id="path36"
     transform="matrix(2.0121375,0,0,2.1037576,-405.64468,321.76956)"
     inkscape:original-d="m 321.73089,-109.58948 c 0.6419,0.47851 1.2838,0.95702 1.92569,1.43552 0.006,0.2451 0.0117,0.49018 0.0175,0.73527 -0.28011,0.5427 -0.5602,1.08539 -0.8403,1.62808 -0.88117,1.4764 -1.7623,2.95273 -2.64345,4.4291 -0.5077,0.63607 -1.01537,1.27212 -1.52305,1.908186 -1.19046,1.546421 -2.38086,3.092781 -3.57129,4.639171 -0.95119,1.336341 -1.90235,2.672629 -2.85353,4.008944 -0.56605,0.986208 -1.13207,1.972377 -1.69811,2.958566 -0.22759,0.583555 -0.45516,1.167087 -0.68274,1.75063 -0.11672,0.10504 -0.23342,0.210076 -0.35013,0.315114 -0.49602,-0.03501 -0.99202,-0.07003 -1.48804,-0.105038 -0.0467,-0.233422 -0.0934,-0.466835 -0.14005,-0.700252 -0.0117,-0.268436 -0.0233,-0.53686 -0.035,-0.80529 -0.12255,-0.221751 -0.24509,-0.443493 -0.36763,-0.66524 0.10504,-0.227586 0.21007,-0.455164 0.31511,-0.682746 1.13793,-1.931568 2.27582,-3.863058 3.41373,-5.794587 1.48807,-2.526794 2.97607,-5.053487 4.46411,-7.580228 1.35385,-2.41592 2.70764,-4.83174 4.06146,-7.24761 0.0817,-0.0292 0.16339,-0.0584 0.24509,-0.0875 0.54854,-0.0642 1.09706,-0.12838 1.64559,-0.19257 0.035,0.0175 0.07,0.035 0.10504,0.0525 z"
     inkscape:path-effect="#path-effect36" /></svg>
